# xmcd
#
# Track frame offsets:
# 150
# 18867
# 34243
# 54692
# 74637
# 94016
# 111790
# 131373
# 148724
# 165131
# 184091
# 199728
# 211807
# 229250
# 249612
# 272392
#
# Disc length: 3885 seconds
#
#
# Revision: 2
# Processed by: cddbd v1.5.2PL0 Copyright (c) Steve Scherf et al.
# Submitted via: FreeRIP 2.951 
#
DISCID=dd0f2b10
DTITLE=Sister Carol - Empressive
DYEAR=1900
DGENRE=
TTITLE0=His mercey endureth
TTITLE1=Rastafire
TTITLE2=Nuh Mash it dung
TTITLE3=Hempumentary
TTITLE4=Satisfaction guanranteed
TTITLE5=Oh what a joy
TTITLE6=Rose in Jah Garden
TTITLE7=No to incest
TTITLE8=Mama, mama
TTITLE9=Mello yellow
TTITLE10=Freedy freedy
TTITLE11=Nineoneone
TTITLE12=Empty world
TTITLE13=Cold Shack
TTITLE14=Original drum
TTITLE15=Rhythm of reggae
EXTD=
EXTT0=
EXTT1=
EXTT2=
EXTT3=
EXTT4=
EXTT5=
EXTT6=
EXTT7=
EXTT8=
EXTT9=
EXTT10=
EXTT11=
EXTT12=
EXTT13=
EXTT14=
EXTT15=
PLAYORDER=
